<?xml version="1.0" encoding="UTF-8" standalone="no"?>
<svg
   xmlns:dc="http://purl.org/dc/elements/1.1/"
   xmlns:cc="http://creativecommons.org/ns#"
   xmlns:rdf="http://www.w3.org/1999/02/22-rdf-syntax-ns#"
   xmlns:svg="http://www.w3.org/2000/svg"
   xmlns="http://www.w3.org/2000/svg"
   xmlns:sodipodi="http://sodipodi.sourceforge.net/DTD/sodipodi-0.dtd"
   xmlns:inkscape="http://www.inkscape.org/namespaces/inkscape"
   version="1.1"
   width="106.18411"
   height="69.03215"
   viewBox="0 0 11060.853 7190.8559"
   id="svg6132"
   sodipodi:docname="magSenseSchematics.svg"
   inkscape:export-filename="H:\git\spdl-docs-master\SupportDocuments\MagneticSensing\magSenseSchematics\prints\inductor_model.png"
   inkscape:export-xdpi="180.78532"
   inkscape:export-ydpi="180.78532"
   inkscape:version="0.92.2 (5c3e80d, 2017-08-06)">
  <metadata
     id="metadata6138">
    <rdf:RDF>
      <cc:Work
         rdf:about="">
        <dc:format>image/svg+xml</dc:format>
        <dc:type
           rdf:resource="http://purl.org/dc/dcmitype/StillImage" />
        <dc:title>SVG Picture created as magSenseSchematics.svg date 2020/01/23 23:50:48 </dc:title>
      </cc:Work>
    </rdf:RDF>
  </metadata>
  <defs
     id="defs6136" />
  <sodipodi:namedview
     pagecolor="#ffffff"
     bordercolor="#666666"
     borderopacity="1"
     objecttolerance="10"
     gridtolerance="10"
     guidetolerance="10"
     inkscape:pageopacity="0"
     inkscape:pageshadow="2"
     inkscape:window-width="1920"
     inkscape:window-height="1027"
     id="namedview6134"
     showgrid="false"
     units="px"
     fit-margin-top="0"
     fit-margin-left="0"
     fit-margin-right="0"
     fit-margin-bottom="0"
     inkscape:zoom="6.2360811"
     inkscape:cx="45.816056"
     inkscape:cy="22.816372"
     inkscape:window-x="-8"
     inkscape:window-y="-8"
     inkscape:window-maximized="1"
     inkscape:current-layer="svg6132" />
  <title
     id="title5322">SVG Picture created as magSenseSchematics.svg date 2020/01/23 23:50:48 </title>
  <desc
     id="desc5324">Picture generated by Eeschema-SVG </desc>
  <g
     style="fill:#000000;fill-opacity:1;stroke:#000000;stroke-linecap:round;stroke-linejoin:round;stroke-opacity:1"
     id="g5326"
     transform="translate(-45969.573,-29839.573)" />
  <g
     style="fill:#000000;fill-opacity:0;stroke:#000000;stroke-width:-10;stroke-linecap:round;stroke-linejoin:round;stroke-opacity:1"
     id="g5328"
     transform="translate(-45969.573,-29839.573)" />
  <g
     style="fill:#840000;fill-opacity:0;stroke:#840000;stroke-width:-10;stroke-linecap:round;stroke-linejoin:round;stroke-opacity:1"
     id="g5330"
     transform="translate(-45969.573,-29839.573)" />
  <g
     style="fill:#840000;fill-opacity:0;stroke:#840000;stroke-width:100;stroke-linecap:round;stroke-linejoin:round;stroke-opacity:1"
     id="g5332"
     transform="translate(-45969.573,-29839.573)" />
  <g
     style="fill:#840000;fill-opacity:0;stroke:#840000;stroke-width:100;stroke-linecap:round;stroke-linejoin:round;stroke-opacity:1"
     id="g5338"
     transform="translate(-45969.573,-29839.573)" />
  <g
     style="fill:#840000;fill-opacity:0;stroke:#840000;stroke-width:100;stroke-linecap:round;stroke-linejoin:round;stroke-opacity:1"
     id="g5344"
     transform="translate(-45969.573,-29839.573)" />
  <g
     style="fill:#840000;fill-opacity:0;stroke:#840000;stroke-width:100;stroke-linecap:round;stroke-linejoin:round;stroke-opacity:1"
     id="g5350"
     transform="translate(-45969.573,-29839.573)" />
  <g
     style="fill:#840000;fill-opacity:0;stroke:#840000;stroke-width:100;stroke-linecap:round;stroke-linejoin:round;stroke-opacity:1"
     id="g5356"
     transform="translate(-45969.573,-29839.573)" />
  <g
     style="fill:#840000;fill-opacity:0;stroke:#840000;stroke-width:100;stroke-linecap:round;stroke-linejoin:round;stroke-opacity:1"
     id="g5362"
     transform="translate(-45969.573,-29839.573)" />
  <g
     style="fill:#840000;fill-opacity:0;stroke:#840000;stroke-width:100;stroke-linecap:round;stroke-linejoin:round;stroke-opacity:1"
     id="g5368"
     transform="translate(-45969.573,-29839.573)" />
  <g
     style="fill:#840000;fill-opacity:0;stroke:#840000;stroke-width:100;stroke-linecap:round;stroke-linejoin:round;stroke-opacity:1"
     id="g5374"
     transform="translate(-45969.573,-29839.573)" />
  <g
     style="fill:#840000;fill-opacity:0;stroke:#840000;stroke-width:100;stroke-linecap:round;stroke-linejoin:round;stroke-opacity:1"
     id="g5380"
     transform="translate(-45969.573,-29839.573)" />
  <g
     style="fill:#840000;fill-opacity:0;stroke:#840000;stroke-width:100;stroke-linecap:round;stroke-linejoin:round;stroke-opacity:1"
     id="g5388"
     transform="translate(-45969.573,-29839.573)" />
  <g
     style="fill:#840000;fill-opacity:0;stroke:#840000;stroke-width:100;stroke-linecap:round;stroke-linejoin:round;stroke-opacity:1"
     id="g5394"
     transform="translate(-45969.573,-29839.573)" />
  <g
     style="fill:#840000;fill-opacity:0;stroke:#840000;stroke-width:100;stroke-linecap:round;stroke-linejoin:round;stroke-opacity:1"
     id="g5400"
     transform="translate(-45969.573,-29839.573)" />
  <g
     style="fill:#840000;fill-opacity:0;stroke:#840000;stroke-width:100;stroke-linecap:round;stroke-linejoin:round;stroke-opacity:1"
     id="g5408"
     transform="translate(-45969.573,-29839.573)" />
  <g
     style="fill:#840000;fill-opacity:0;stroke:#840000;stroke-width:100;stroke-linecap:round;stroke-linejoin:round;stroke-opacity:1"
     id="g5414"
     transform="translate(-45969.573,-29839.573)" />
  <g
     style="fill:#840000;fill-opacity:0;stroke:#840000;stroke-width:100;stroke-linecap:round;stroke-linejoin:round;stroke-opacity:1"
     id="g5420"
     transform="translate(-45969.573,-29839.573)" />
  <g
     style="fill:#840000;fill-opacity:0;stroke:#840000;stroke-width:100;stroke-linecap:round;stroke-linejoin:round;stroke-opacity:1"
     id="g5426"
     transform="translate(-45969.573,-29839.573)" />
  <g
     style="fill:#840000;fill-opacity:0;stroke:#840000;stroke-width:100;stroke-linecap:round;stroke-linejoin:round;stroke-opacity:1"
     id="g5432"
     transform="translate(-45969.573,-29839.573)" />
  <g
     style="fill:#840000;fill-opacity:0;stroke:#840000;stroke-width:100;stroke-linecap:round;stroke-linejoin:round;stroke-opacity:1"
     id="g5438"
     transform="translate(-45969.573,-29839.573)" />
  <g
     style="fill:#840000;fill-opacity:0;stroke:#840000;stroke-width:100;stroke-linecap:round;stroke-linejoin:round;stroke-opacity:1"
     id="g5444"
     transform="translate(-45969.573,-29839.573)" />
  <g
     style="fill:#840000;fill-opacity:0;stroke:#840000;stroke-width:100;stroke-linecap:round;stroke-linejoin:round;stroke-opacity:1"
     id="g5450"
     transform="translate(-45969.573,-29839.573)" />
  <g
     style="fill:#840000;fill-opacity:0;stroke:#840000;stroke-width:100;stroke-linecap:round;stroke-linejoin:round;stroke-opacity:1"
     id="g5458"
     transform="translate(-45969.573,-29839.573)" />
  <g
     style="fill:#840000;fill-opacity:0;stroke:#840000;stroke-width:100;stroke-linecap:round;stroke-linejoin:round;stroke-opacity:1"
     id="g5464"
     transform="translate(-45969.573,-29839.573)" />
  <g
     style="fill:#840000;fill-opacity:0;stroke:#840000;stroke-width:100;stroke-linecap:round;stroke-linejoin:round;stroke-opacity:1"
     id="g5470"
     transform="translate(-45969.573,-29839.573)" />
  <g
     style="fill:#840000;fill-opacity:0;stroke:#840000;stroke-width:100;stroke-linecap:round;stroke-linejoin:round;stroke-opacity:1"
     id="g5478"
     transform="translate(-45969.573,-29839.573)" />
  <g
     style="fill:#840000;fill-opacity:0;stroke:#840000;stroke-width:100;stroke-linecap:round;stroke-linejoin:round;stroke-opacity:1"
     id="g5484"
     transform="translate(-45969.573,-29839.573)" />
  <g
     style="fill:#840000;fill-opacity:0;stroke:#840000;stroke-width:100;stroke-linecap:round;stroke-linejoin:round;stroke-opacity:1"
     id="g5490"
     transform="translate(-45969.573,-29839.573)" />
  <g
     style="fill:#840000;fill-opacity:0;stroke:#840000;stroke-width:100;stroke-linecap:round;stroke-linejoin:round;stroke-opacity:1"
     id="g5496"
     transform="translate(-45969.573,-29839.573)" />
  <g
     style="fill:#840000;fill-opacity:0;stroke:#840000;stroke-width:100;stroke-linecap:round;stroke-linejoin:round;stroke-opacity:1"
     id="g5502"
     transform="translate(-45969.573,-29839.573)" />
  <g
     style="fill:#840000;fill-opacity:0;stroke:#840000;stroke-width:100;stroke-linecap:round;stroke-linejoin:round;stroke-opacity:1"
     id="g5508"
     transform="translate(-45969.573,-29839.573)" />
  <g
     style="fill:#840000;fill-opacity:0;stroke:#840000;stroke-width:100;stroke-linecap:round;stroke-linejoin:round;stroke-opacity:1"
     id="g5516"
     transform="translate(-45969.573,-29839.573)" />
  <g
     style="fill:#840000;fill-opacity:0;stroke:#840000;stroke-width:100;stroke-linecap:round;stroke-linejoin:round;stroke-opacity:1"
     id="g5522"
     transform="translate(-45969.573,-29839.573)" />
  <g
     style="fill:#840000;fill-opacity:0;stroke:#840000;stroke-width:100;stroke-linecap:round;stroke-linejoin:round;stroke-opacity:1"
     id="g5528"
     transform="translate(-45969.573,-29839.573)" />
  <g
     style="fill:#840000;fill-opacity:0;stroke:#840000;stroke-width:100;stroke-linecap:round;stroke-linejoin:round;stroke-opacity:1"
     id="g5534"
     transform="translate(-45969.573,-29839.573)" />
  <g
     style="fill:#840000;fill-opacity:0;stroke:#840000;stroke-width:100;stroke-linecap:round;stroke-linejoin:round;stroke-opacity:1"
     id="g5540"
     transform="translate(-45969.573,-29839.573)" />
  <g
     style="fill:#840000;fill-opacity:0;stroke:#840000;stroke-width:100;stroke-linecap:round;stroke-linejoin:round;stroke-opacity:1"
     id="g5546"
     transform="translate(-45969.573,-29839.573)" />
  <g
     style="fill:#840000;fill-opacity:0;stroke:#840000;stroke-width:100;stroke-linecap:round;stroke-linejoin:round;stroke-opacity:1"
     id="g5552"
     transform="translate(-45969.573,-29839.573)" />
  <g
     style="fill:#840000;fill-opacity:0;stroke:#840000;stroke-width:100;stroke-linecap:round;stroke-linejoin:round;stroke-opacity:1"
     id="g5560"
     transform="translate(-45969.573,-29839.573)" />
  <g
     style="fill:#840000;fill-opacity:0;stroke:#840000;stroke-width:100;stroke-linecap:round;stroke-linejoin:round;stroke-opacity:1"
     id="g5566"
     transform="translate(-45969.573,-29839.573)" />
  <g
     style="fill:#840000;fill-opacity:0;stroke:#840000;stroke-width:100;stroke-linecap:round;stroke-linejoin:round;stroke-opacity:1"
     id="g5572"
     transform="translate(-45969.573,-29839.573)" />
  <g
     style="fill:#840000;fill-opacity:0;stroke:#840000;stroke-width:100;stroke-linecap:round;stroke-linejoin:round;stroke-opacity:1"
     id="g5578"
     transform="translate(-45969.573,-29839.573)" />
  <g
     style="fill:#840000;fill-opacity:0;stroke:#840000;stroke-width:100;stroke-linecap:round;stroke-linejoin:round;stroke-opacity:1"
     id="g5598"
     transform="translate(-45969.573,-29839.573)" />
  <g
     style="fill:#840000;fill-opacity:0;stroke:#840000;stroke-width:100;stroke-linecap:round;stroke-linejoin:round;stroke-opacity:1"
     id="g5604"
     transform="translate(-45969.573,-29839.573)" />
  <g
     style="fill:#840000;fill-opacity:0;stroke:#840000;stroke-width:100;stroke-linecap:round;stroke-linejoin:round;stroke-opacity:1"
     id="g5678"
     transform="translate(-45969.573,-29839.573)" />
  <g
     style="fill:#840000;fill-opacity:0;stroke:#840000;stroke-width:100;stroke-linecap:round;stroke-linejoin:round;stroke-opacity:1"
     id="g5684"
     transform="translate(-45969.573,-29839.573)" />
  <g
     style="fill:#840000;fill-opacity:0;stroke:#840000;stroke-width:100;stroke-linecap:round;stroke-linejoin:round;stroke-opacity:1"
     id="g5700"
     transform="translate(-45969.573,-29839.573)" />
  <g
     style="fill:#840000;fill-opacity:0;stroke:#840000;stroke-width:100;stroke-linecap:round;stroke-linejoin:round;stroke-opacity:1"
     id="g5726"
     transform="translate(-45969.573,-29839.573)" />
  <g
     style="fill:#840000;fill-opacity:0;stroke:#840000;stroke-width:100;stroke-linecap:round;stroke-linejoin:round;stroke-opacity:1"
     id="g5750"
     transform="translate(-45969.573,-29839.573)" />
  <g
     style="fill:#840000;fill-opacity:0;stroke:#840000;stroke-width:100;stroke-linecap:round;stroke-linejoin:round;stroke-opacity:1"
     id="g5756"
     transform="translate(-45969.573,-29839.573)" />
  <g
     style="fill:#840000;fill-opacity:0;stroke:#840000;stroke-width:100;stroke-linecap:round;stroke-linejoin:round;stroke-opacity:1"
     id="g5780"
     transform="translate(-45969.573,-29839.573)" />
  <g
     style="fill:#840000;fill-opacity:0;stroke:#840000;stroke-width:100;stroke-linecap:round;stroke-linejoin:round;stroke-opacity:1"
     id="g5868"
     transform="translate(-45969.573,-29839.573)" />
  <g
     style="fill:#840000;fill-opacity:0;stroke:#840000;stroke-width:100;stroke-linecap:round;stroke-linejoin:round;stroke-opacity:1"
     id="g5874"
     transform="translate(-45969.573,-29839.573)" />
  <g
     style="fill:#840000;fill-opacity:0;stroke:#840000;stroke-width:100;stroke-linecap:round;stroke-linejoin:round;stroke-opacity:1"
     id="g5898"
     transform="translate(-45969.573,-29839.573)" />
  <g
     style="fill:#840000;fill-opacity:0;stroke:#840000;stroke-width:100;stroke-linecap:round;stroke-linejoin:round;stroke-opacity:1"
     id="g5904"
     transform="translate(-45969.573,-29839.573)" />
  <g
     style="fill:#840000;fill-opacity:0;stroke:#840000;stroke-width:0;stroke-linecap:round;stroke-linejoin:round;stroke-opacity:1"
     id="g5910"
     transform="translate(-45969.573,-29839.573)" />
  <g
     style="fill:#840000;fill-opacity:0;stroke:#840000;stroke-width:60;stroke-linecap:round;stroke-linejoin:round;stroke-opacity:1"
     id="g5924"
     transform="translate(-45969.573,-29839.573)">
    <path
       d="m 52500,32499.6 a 250,250 0 0 0 -500,0"
       id="path5912"
       inkscape:connector-curvature="0" />
    <path
       d="m 52000,32499.6 a 250,250 0 0 0 -500,0"
       id="path5914"
       inkscape:connector-curvature="0" />
    <path
       d="m 51500,32499.6 a 250,250 0 0 0 -500,0"
       id="path5916"
       inkscape:connector-curvature="0" />
    <path
       d="m 51000,32499.6 a 250,250 0 0 0 -500,0"
       id="path5918"
       inkscape:connector-curvature="0" />
    <path
       d="m 50500,32500 h -500"
       id="path5920"
       inkscape:connector-curvature="0" />
    <path
       d="m 52500,32500 h 500"
       id="path5922"
       inkscape:connector-curvature="0" />
  </g>
  <g
     style="fill:#008484;fill-opacity:0;stroke:#008484;stroke-width:60;stroke-linecap:round;stroke-linejoin:round;stroke-opacity:1"
     id="g5968"
     transform="translate(-45969.573,-29839.573)">
    <path
       d="m 48950,31660 -30,30 -70,20 h -50 l -70,-20 -40,-50 -30,-50 -20,-90 v -70 l 20,-100 30,-50 40,-40 70,-30 h 50 l 70,30 30,20"
       id="path5926"
       inkscape:connector-curvature="0" />
    <path
       d="m 49230,31710 -40,-20 -30,-30 -20,-40 v -150 l 20,-40 30,-30 40,-20 h 70 l 50,20 30,30 20,40 v 150 l -20,40 -30,30 -50,20 h -70"
       id="path5928"
       inkscape:connector-curvature="0" />
    <path
       d="m 49610,31710 v -330"
       id="path5930"
       inkscape:connector-curvature="0" />
    <path
       d="m 49610,31210 -20,30 20,20 30,-20 -30,-30 v 50"
       id="path5932"
       inkscape:connector-curvature="0" />
    <path
       d="m 49920,31710 -40,-20 -30,-50 v -430"
       id="path5934"
       inkscape:connector-curvature="0" />
    <path
       d="m 50500,31710 v -500"
       id="path5936"
       inkscape:connector-curvature="0" />
    <path
       d="m 50730,31380 v 330"
       id="path5938"
       inkscape:connector-curvature="0" />
    <path
       d="m 50730,31430 30,-30 40,-20 h 80 l 40,20 30,50 v 260"
       id="path5940"
       inkscape:connector-curvature="0" />
    <path
       d="m 51400,31710 v -500"
       id="path5942"
       inkscape:connector-curvature="0" />
    <path
       d="m 51400,31690 -50,20 h -90 l -50,-20 -20,-30 -30,-40 v -150 l 30,-40 20,-30 50,-20 h 90 l 50,20"
       id="path5944"
       inkscape:connector-curvature="0" />
    <path
       d="m 51850,31380 v 330"
       id="path5946"
       inkscape:connector-curvature="0" />
    <path
       d="m 51640,31380 v 260 l 20,50 50,20 h 70 l 50,-20 20,-30"
       id="path5948"
       inkscape:connector-curvature="0" />
    <path
       d="m 52300,31690 -40,20 h -100 l -50,-20 -20,-30 -20,-40 v -150 l 20,-40 20,-30 50,-20 h 100 l 40,20"
       id="path5950"
       inkscape:connector-curvature="0" />
    <path
       d="m 52450,31380 h 190"
       id="path5952"
       inkscape:connector-curvature="0" />
    <path
       d="m 52520,31210 v 430 l 20,50 50,20 h 50"
       id="path5954"
       inkscape:connector-curvature="0" />
    <path
       d="m 53020,31710 v -260 l -20,-50 -50,-20 h -100 l -50,20"
       id="path5956"
       inkscape:connector-curvature="0" />
    <path
       d="m 53020,31690 -50,20 h -120 l -50,-20 -20,-50 v -50 l 20,-50 50,-20 h 120 l 50,-20"
       id="path5958"
       inkscape:connector-curvature="0" />
    <path
       d="m 53260,31380 v 330"
       id="path5960"
       inkscape:connector-curvature="0" />
    <path
       d="m 53260,31430 20,-30 50,-20 h 70 l 50,20 20,50 v 260"
       id="path5962"
       inkscape:connector-curvature="0" />
    <path
       d="m 53920,31690 -40,20 h -100 l -50,-20 -20,-30 -20,-40 v -150 l 20,-40 20,-30 50,-20 h 100 l 40,20"
       id="path5964"
       inkscape:connector-curvature="0" />
    <path
       d="m 54330,31690 -50,20 h -90 l -50,-20 -30,-50 v -190 l 30,-50 50,-20 h 90 l 50,20 20,50 v 50 l -240,40"
       id="path5966"
       inkscape:connector-curvature="0" />
  </g>
  <g
     style="fill:#008484;fill-opacity:0;stroke:#008484;stroke-width:0;stroke-linecap:round;stroke-linejoin:round;stroke-opacity:1"
     id="g5970"
     transform="translate(-45969.573,-29839.573)" />
  <g
     style="fill:#840000;fill-opacity:0;stroke:#840000;stroke-width:0;stroke-linecap:round;stroke-linejoin:round;stroke-opacity:1"
     id="g5972"
     transform="translate(-45969.573,-29839.573)" />
  <g
     style="fill:#840000;fill-opacity:0;stroke:#840000;stroke-width:200;stroke-linecap:round;stroke-linejoin:round;stroke-opacity:1"
     id="g5978"
     transform="translate(-45969.573,-29839.573)">
    <polyline
       fill="none;"
       points="51200,33700 51200,35300 "
       id="polyline5974" />
    <polyline
       fill="none;"
       points="51800,33700 51800,35300 "
       id="polyline5976" />
  </g>
  <g
     style="fill:#840000;fill-opacity:0;stroke:#840000;stroke-width:60;stroke-linecap:round;stroke-linejoin:round;stroke-opacity:1"
     id="g5984"
     transform="translate(-45969.573,-29839.573)">
    <path
       d="m 51900,34500 h 1100"
       id="path5980"
       inkscape:connector-curvature="0" />
    <path
       d="M 51100,34500 H 50000"
       id="path5982"
       inkscape:connector-curvature="0" />
  </g>
  <g
     style="fill:#008484;fill-opacity:0;stroke:#008484;stroke-width:60;stroke-linecap:round;stroke-linejoin:round;stroke-opacity:1"
     id="g6032"
     transform="translate(-45969.573,-29839.573)">
    <path
       d="m 48700,36190 -30,30 -70,20 h -50 l -70,-20 -40,-50 -30,-50 -20,-90 v -70 l 20,-100 30,-50 40,-40 70,-30 h 50 l 70,30 30,20"
       id="path5986"
       inkscape:connector-curvature="0" />
    <path
       d="m 48980,36240 -40,-20 -30,-30 -20,-40 v -150 l 20,-40 30,-30 40,-20 h 70 l 50,20 30,30 20,40 v 150 l -20,40 -30,30 -50,20 h -70"
       id="path5988"
       inkscape:connector-curvature="0" />
    <path
       d="m 49360,36240 v -330"
       id="path5990"
       inkscape:connector-curvature="0" />
    <path
       d="m 49360,35740 -20,30 20,20 30,-20 -30,-30 v 50"
       id="path5992"
       inkscape:connector-curvature="0" />
    <path
       d="m 49670,36240 -40,-20 -30,-50 v -430"
       id="path5994"
       inkscape:connector-curvature="0" />
    <path
       d="m 50530,36190 -20,30 -70,20 h -50 l -70,-20 -50,-50 -20,-50 -30,-90 v -70 l 30,-100 20,-50 50,-40 70,-30 h 50 l 70,30 20,20"
       id="path5996"
       inkscape:connector-curvature="0" />
    <path
       d="m 50960,36240 v -260 l -20,-50 -50,-20 h -100 l -40,20"
       id="path5998"
       inkscape:connector-curvature="0" />
    <path
       d="m 50960,36220 -50,20 h -120 l -40,-20 -30,-50 v -50 l 30,-50 40,-20 h 120 l 50,-20"
       id="path6000"
       inkscape:connector-curvature="0" />
    <path
       d="m 51200,35910 v 500"
       id="path6002"
       inkscape:connector-curvature="0" />
    <path
       d="m 51200,35930 50,-20 h 90 l 50,20 20,30 30,40 v 150 l -30,40 -20,30 -50,20 h -90 l -50,-20"
       id="path6004"
       inkscape:connector-curvature="0" />
    <path
       d="m 51860,36240 v -260 l -20,-50 -50,-20 h -90 l -50,20"
       id="path6006"
       inkscape:connector-curvature="0" />
    <path
       d="m 51860,36220 -40,20 h -120 l -50,-20 -20,-50 v -50 l 20,-50 50,-20 h 120 l 40,-20"
       id="path6008"
       inkscape:connector-curvature="0" />
    <path
       d="m 52320,36220 -50,20 h -100 l -40,-20 -30,-30 -20,-40 v -150 l 20,-40 30,-30 40,-20 h 100 l 50,20"
       id="path6010"
       inkscape:connector-curvature="0" />
    <path
       d="m 52530,36240 v -330"
       id="path6012"
       inkscape:connector-curvature="0" />
    <path
       d="m 52530,35740 -20,30 20,20 20,-20 -20,-30 v 50"
       id="path6014"
       inkscape:connector-curvature="0" />
    <path
       d="m 52700,35910 h 190"
       id="path6016"
       inkscape:connector-curvature="0" />
    <path
       d="m 52770,35740 v 430 l 20,50 50,20 h 50"
       id="path6018"
       inkscape:connector-curvature="0" />
    <path
       d="m 53270,36240 v -260 l -20,-50 -50,-20 h -100 l -50,20"
       id="path6020"
       inkscape:connector-curvature="0" />
    <path
       d="m 53270,36220 -50,20 h -120 l -50,-20 -20,-50 v -50 l 20,-50 50,-20 h 120 l 50,-20"
       id="path6022"
       inkscape:connector-curvature="0" />
    <path
       d="m 53510,35910 v 330"
       id="path6024"
       inkscape:connector-curvature="0" />
    <path
       d="m 53510,35960 20,-30 50,-20 h 70 l 50,20 20,50 v 260"
       id="path6026"
       inkscape:connector-curvature="0" />
    <path
       d="m 54170,36220 -40,20 h -100 l -50,-20 -20,-30 -20,-40 v -150 l 20,-40 20,-30 50,-20 h 100 l 40,20"
       id="path6028"
       inkscape:connector-curvature="0" />
    <path
       d="m 54580,36220 -50,20 h -90 l -50,-20 -30,-50 v -190 l 30,-50 50,-20 h 90 l 50,20 20,50 v 50 l -240,40"
       id="path6030"
       inkscape:connector-curvature="0" />
  </g>
  <g
     style="fill:#008400;fill-opacity:0;stroke:#008400;stroke-width:60;stroke-linecap:round;stroke-linejoin:round;stroke-opacity:1"
     id="g6040"
     transform="translate(-45969.573,-29839.573)">
    <path
       d="m 53000,32500 v 1000"
       id="path6034"
       inkscape:connector-curvature="0" />
    <path
       d="m 50000,32500 v 1000"
       id="path6036"
       inkscape:connector-curvature="0" />
    <path
       d="m 46000,33500 h 4000"
       id="path6038"
       inkscape:connector-curvature="0" />
  </g>
  <g
     style="fill:#008400;fill-opacity:0;stroke:#008400;stroke-width:0;stroke-linecap:round;stroke-linejoin:round;stroke-opacity:1"
     id="g6042"
     transform="translate(-45969.573,-29839.573)" />
  <g
     style="fill:#008400;fill-opacity:1;stroke:#008400;stroke-width:100;stroke-linecap:round;stroke-linejoin:round;stroke-opacity:1"
     id="g6046"
     transform="translate(-45969.573,-29839.573)">
    <circle
       cx="50000"
       cy="33500"
       r="200"
       id="circle6044" />
  </g>
  <g
     style="fill:#008400;fill-opacity:1;stroke:#008400;stroke-width:60;stroke-linecap:round;stroke-linejoin:round;stroke-opacity:1"
     id="g6048"
     transform="translate(-45969.573,-29839.573)" />
  <g
     style="fill:#008400;fill-opacity:0;stroke:#008400;stroke-width:60;stroke-linecap:round;stroke-linejoin:round;stroke-opacity:1"
     id="g6054"
     transform="translate(-45969.573,-29839.573)">
    <path
       d="m 50000,33500 v 1000"
       id="path6050"
       inkscape:connector-curvature="0" />
    <path
       d="m 53000,33500 h 4000"
       id="path6052"
       inkscape:connector-curvature="0" />
  </g>
  <g
     style="fill:#008400;fill-opacity:0;stroke:#008400;stroke-width:0;stroke-linecap:round;stroke-linejoin:round;stroke-opacity:1"
     id="g6056"
     transform="translate(-45969.573,-29839.573)" />
  <g
     style="fill:#008400;fill-opacity:1;stroke:#008400;stroke-width:100;stroke-linecap:round;stroke-linejoin:round;stroke-opacity:1"
     id="g6060"
     transform="translate(-45969.573,-29839.573)">
    <circle
       cx="53000"
       cy="33500"
       r="200"
       id="circle6058" />
  </g>
  <g
     style="fill:#008400;fill-opacity:1;stroke:#008400;stroke-width:60;stroke-linecap:round;stroke-linejoin:round;stroke-opacity:1"
     id="g6062"
     transform="translate(-45969.573,-29839.573)" />
  <g
     style="fill:#008400;fill-opacity:0;stroke:#008400;stroke-width:60;stroke-linecap:round;stroke-linejoin:round;stroke-opacity:1"
     id="g6066"
     transform="translate(-45969.573,-29839.573)">
    <path
       d="m 53000,33500 v 1000"
       id="path6064"
       inkscape:connector-curvature="0" />
  </g>
  <g
     style="fill:#0000c2;fill-opacity:0;stroke:#0000c2;stroke-width:60;stroke-linecap:round;stroke-linejoin:round;stroke-opacity:1"
     id="g6068"
     transform="translate(-45969.573,-29839.573)" />
  <g
     style="fill:#0000c2;fill-opacity:0;stroke:#0000c2;stroke-width:60;stroke-linecap:round;stroke-linejoin:round;stroke-dasharray:150, 150;stroke-opacity:1"
     id="g6072"
     transform="translate(-45969.573,-29839.573)">
    <path
       d="m 47500,30500 v 6500"
       id="path6070"
       inkscape:connector-curvature="0" />
  </g>
  <g
     style="fill:#0000c2;fill-opacity:0;stroke:#0000c2;stroke-width:60;stroke-linecap:round;stroke-linejoin:round;stroke-opacity:1"
     id="g6074"
     transform="translate(-45969.573,-29839.573)" />
  <g
     style="fill:#0000c2;fill-opacity:0;stroke:#0000c2;stroke-width:60;stroke-linecap:round;stroke-linejoin:round;stroke-dasharray:150, 150;stroke-opacity:1"
     id="g6078"
     transform="translate(-45969.573,-29839.573)">
    <path
       d="m 47500,37000 h 8000"
       id="path6076"
       inkscape:connector-curvature="0" />
  </g>
  <g
     style="fill:#0000c2;fill-opacity:0;stroke:#0000c2;stroke-width:60;stroke-linecap:round;stroke-linejoin:round;stroke-opacity:1"
     id="g6080"
     transform="translate(-45969.573,-29839.573)" />
  <g
     style="fill:#0000c2;fill-opacity:0;stroke:#0000c2;stroke-width:60;stroke-linecap:round;stroke-linejoin:round;stroke-dasharray:150, 150;stroke-opacity:1"
     id="g6084"
     transform="translate(-45969.573,-29839.573)">
    <path
       d="M 55500,37000 V 30500"
       id="path6082"
       inkscape:connector-curvature="0" />
  </g>
  <g
     style="fill:#0000c2;fill-opacity:0;stroke:#0000c2;stroke-width:60;stroke-linecap:round;stroke-linejoin:round;stroke-opacity:1"
     id="g6086"
     transform="translate(-45969.573,-29839.573)" />
  <g
     style="fill:#0000c2;fill-opacity:0;stroke:#0000c2;stroke-width:60;stroke-linecap:round;stroke-linejoin:round;stroke-dasharray:150, 150;stroke-opacity:1"
     id="g6090"
     transform="translate(-45969.573,-29839.573)">
    <path
       d="M 55500,30500 H 47500"
       id="path6088"
       inkscape:connector-curvature="0" />
  </g>
  <g
     style="fill:#0000c2;fill-opacity:0;stroke:#0000c2;stroke-width:60;stroke-linecap:round;stroke-linejoin:round;stroke-opacity:1"
     id="g6130"
     transform="translate(-45969.573,-29839.573)">
    <path
       d="m 47640,30370 v -500"
       id="path6092"
       inkscape:connector-curvature="0" />
    <path
       d="m 47880,30040 v 330"
       id="path6094"
       inkscape:connector-curvature="0" />
    <path
       d="m 47880,30090 30,-30 40,-20 h 80 l 40,20 30,50 v 260"
       id="path6096"
       inkscape:connector-curvature="0" />
    <path
       d="m 48550,30370 v -500"
       id="path6098"
       inkscape:connector-curvature="0" />
    <path
       d="m 48550,30350 -50,20 h -90 l -50,-20 -30,-30 -20,-40 v -150 l 20,-40 30,-30 50,-20 h 90 l 50,20"
       id="path6100"
       inkscape:connector-curvature="0" />
    <path
       d="m 49000,30040 v 330"
       id="path6102"
       inkscape:connector-curvature="0" />
    <path
       d="m 48790,30040 v 260 l 20,50 50,20 h 70 l 50,-20 20,-30"
       id="path6104"
       inkscape:connector-curvature="0" />
    <path
       d="m 49450,30350 -40,20 h -100 l -50,-20 -20,-30 -20,-40 v -150 l 20,-40 20,-30 50,-20 h 100 l 40,20"
       id="path6106"
       inkscape:connector-curvature="0" />
    <path
       d="m 49600,30040 h 190"
       id="path6108"
       inkscape:connector-curvature="0" />
    <path
       d="m 49670,29870 v 430 l 20,50 50,20 h 50"
       id="path6110"
       inkscape:connector-curvature="0" />
    <path
       d="m 50030,30370 -50,-20 -30,-30 -20,-40 v -150 l 20,-40 30,-30 50,-20 h 70 l 40,20 30,30 20,40 v 150 l -20,40 -30,30 -40,20 h -70"
       id="path6112"
       inkscape:connector-curvature="0" />
    <path
       d="m 50410,30370 v -330"
       id="path6114"
       inkscape:connector-curvature="0" />
    <path
       d="m 50410,30130 20,-40 20,-30 50,-20 h 50"
       id="path6116"
       inkscape:connector-curvature="0" />
    <path
       d="m 51100,30370 v -500 l 160,360 170,-360 v 500"
       id="path6118"
       inkscape:connector-curvature="0" />
    <path
       d="m 51740,30370 -50,-20 -20,-30 -30,-40 v -150 l 30,-40 20,-30 50,-20 h 70 l 50,20 20,30 30,40 v 150 l -30,40 -20,30 -50,20 h -70"
       id="path6120"
       inkscape:connector-curvature="0" />
    <path
       d="m 52330,30370 v -500"
       id="path6122"
       inkscape:connector-curvature="0" />
    <path
       d="m 52330,30350 -40,20 h -100 l -50,-20 -20,-30 -20,-40 v -150 l 20,-40 20,-30 50,-20 h 100 l 40,20"
       id="path6124"
       inkscape:connector-curvature="0" />
    <path
       d="m 52760,30350 -40,20 h -100 l -50,-20 -20,-50 v -190 l 20,-50 50,-20 h 100 l 40,20 30,50 v 50 l -240,40"
       id="path6126"
       inkscape:connector-curvature="0" />
    <path
       d="m 53070,30370 -40,-20 -30,-50 v -430"
       id="path6128"
       inkscape:connector-curvature="0" />
  </g>
</svg>
